<svg xmlns="http://www.w3.org/2000/svg" xmlns:xlink="http://www.w3.org/1999/xlink" zoomAndPan="magnify" viewBox="-10 -10 250 75" preserveAspectRatio="xMidYMid meet" version="1.0"><defs><g/><clipPath id="5451754fd8"><path d="M 27 21 L 65.25 21 L 65.25 55.25 L 27 55.25 Z M 27 21 " clip-rule="nonzero"/></clipPath><clipPath id="b54d4024ba"><path d="M 0 32 L 42 32 L 42 55 L 0 55 Z M 0 32 " clip-rule="nonzero"/></clipPath><clipPath id="2300f97a53"><path d="M 0 54.335938 C 10.59375 35.945312 6.621094 34.304688 27.515625 32.03125 C 33.882812 33.441406 37.707031 38.175781 41.984375 42.675781 C 25.863281 31.085938 21.917969 57.175781 0 54.335938 Z M 0 54.335938 " clip-rule="evenodd"/></clipPath><linearGradient x1="-123.655557" gradientTransform="matrix(0.0105421, 0, 0, 0.010564, 0.0000045, 1.25516)" y1="3124.381856" x2="4087.479706" gradientUnits="userSpaceOnUse" y2="4856.215002" id="d8eed5f304"><stop stop-opacity="1" stop-color="rgb(1.947021%, 26.983643%, 48.190308%)" offset="0"/><stop stop-opacity="1" stop-color="rgb(1.94397%, 27.114868%, 48.345947%)" offset="0.0078125"/><stop stop-opacity="1" stop-color="rgb(1.937866%, 27.378845%, 48.658752%)" offset="0.015625"/><stop stop-opacity="1" stop-color="rgb(1.931763%, 27.644348%, 48.970032%)" offset="0.0234375"/><stop stop-opacity="1" stop-color="rgb(1.927185%, 27.908325%, 49.281311%)" offset="0.03125"/><stop stop-opacity="1" stop-color="rgb(1.921082%, 28.172302%, 49.594116%)" offset="0.0390625"/><stop stop-opacity="1" stop-color="rgb(1.914978%, 28.437805%, 49.905396%)" offset="0.046875"/><stop stop-opacity="1" stop-color="rgb(1.908875%, 28.701782%, 50.216675%)" offset="0.0546875"/><stop stop-opacity="1" stop-color="rgb(1.902771%, 28.967285%, 50.527954%)" offset="0.0625"/><stop stop-opacity="1" stop-color="rgb(1.896667%, 29.231262%, 50.840759%)" offset="0.0703125"/><stop stop-opacity="1" stop-color="rgb(1.890564%, 29.495239%, 51.152039%)" offset="0.078125"/><stop stop-opacity="1" stop-color="rgb(1.88446%, 29.760742%, 51.463318%)" offset="0.0859375"/><stop stop-opacity="1" stop-color="rgb(1.878357%, 30.024719%, 51.776123%)" offset="0.09375"/><stop stop-opacity="1" stop-color="rgb(1.872253%, 30.288696%, 52.087402%)" offset="0.101563"/><stop stop-opacity="1" stop-color="rgb(1.86615%, 30.554199%, 52.398682%)" offset="0.109375"/><stop stop-opacity="1" stop-color="rgb(1.860046%, 30.818176%, 52.709961%)" offset="0.117188"/><stop stop-opacity="1" stop-color="rgb(1.853943%, 31.082153%, 53.022766%)" offset="0.125"/><stop stop-opacity="1" stop-color="rgb(1.847839%, 31.347656%, 53.334045%)" offset="0.132812"/><stop stop-opacity="1" stop-color="rgb(1.843262%, 31.611633%, 53.645325%)" offset="0.140625"/><stop stop-opacity="1" stop-color="rgb(1.837158%, 31.87561%, 53.95813%)" offset="0.148438"/><stop stop-opacity="1" stop-color="rgb(1.831055%, 32.141113%, 54.269409%)" offset="0.15625"/><stop stop-opacity="1" stop-color="rgb(1.824951%, 32.40509%, 54.580688%)" offset="0.164062"/><stop stop-opacity="1" stop-color="rgb(1.818848%, 32.670593%, 54.893494%)" offset="0.171875"/><stop stop-opacity="1" stop-color="rgb(1.812744%, 32.93457%, 55.204773%)" offset="0.179688"/><stop stop-opacity="1" stop-color="rgb(1.806641%, 33.198547%, 55.516052%)" offset="0.1875"/><stop stop-opacity="1" stop-color="rgb(1.800537%, 33.46405%, 55.827332%)" offset="0.191066"/><stop stop-opacity="1" stop-color="rgb(1.797485%, 33.596802%, 55.984497%)" offset="0.195312"/><stop stop-opacity="1" stop-color="rgb(1.794434%, 33.728027%, 56.140137%)" offset="0.203125"/><stop stop-opacity="1" stop-color="rgb(1.78833%, 33.992004%, 56.451416%)" offset="0.210938"/><stop stop-opacity="1" stop-color="rgb(1.782227%, 34.257507%, 56.762695%)" offset="0.21875"/><stop stop-opacity="1" stop-color="rgb(1.776123%, 34.521484%, 57.0755%)" offset="0.226562"/><stop stop-opacity="1" stop-color="rgb(1.77002%, 34.785461%, 57.38678%)" offset="0.234375"/><stop stop-opacity="1" stop-color="rgb(1.763916%, 35.050964%, 57.698059%)" offset="0.242188"/><stop stop-opacity="1" stop-color="rgb(1.759338%, 35.314941%, 58.009338%)" offset="0.25"/><stop stop-opacity="1" stop-color="rgb(1.753235%, 35.578918%, 58.322144%)" offset="0.257812"/><stop stop-opacity="1" stop-color="rgb(1.747131%, 35.844421%, 58.633423%)" offset="0.265625"/><stop stop-opacity="1" stop-color="rgb(1.741028%, 36.108398%, 58.944702%)" offset="0.273438"/><stop stop-opacity="1" stop-color="rgb(1.734924%, 36.373901%, 59.257507%)" offset="0.28125"/><stop stop-opacity="1" stop-color="rgb(1.728821%, 36.637878%, 59.568787%)" offset="0.289062"/><stop stop-opacity="1" stop-color="rgb(1.722717%, 36.901855%, 59.880066%)" offset="0.296875"/><stop stop-opacity="1" stop-color="rgb(1.716614%, 37.167358%, 60.192871%)" offset="0.304688"/><stop stop-opacity="1" stop-color="rgb(1.71051%, 37.431335%, 60.50415%)" offset="0.3125"/><stop stop-opacity="1" stop-color="rgb(1.704407%, 37.695312%, 60.81543%)" offset="0.320312"/><stop stop-opacity="1" stop-color="rgb(1.698303%, 37.960815%, 61.126709%)" offset="0.328125"/><stop stop-opacity="1" stop-color="rgb(1.6922%, 38.224792%, 61.439514%)" offset="0.335938"/><stop stop-opacity="1" stop-color="rgb(1.686096%, 38.48877%, 61.750793%)" offset="0.34375"/><stop stop-opacity="1" stop-color="rgb(1.679993%, 38.754272%, 62.062073%)" offset="0.351562"/><stop stop-opacity="1" stop-color="rgb(1.675415%, 39.01825%, 62.374878%)" offset="0.359375"/><stop stop-opacity="1" stop-color="rgb(1.669312%, 39.282227%, 62.686157%)" offset="0.367188"/><stop stop-opacity="1" stop-color="rgb(1.663208%, 39.547729%, 62.997437%)" offset="0.375"/><stop stop-opacity="1" stop-color="rgb(1.657104%, 39.811707%, 63.308716%)" offset="0.382812"/><stop stop-opacity="1" stop-color="rgb(1.651001%, 40.075684%, 63.621521%)" offset="0.390625"/><stop stop-opacity="1" stop-color="rgb(1.644897%, 40.341187%, 63.9328%)" offset="0.398438"/><stop stop-opacity="1" stop-color="rgb(1.638794%, 40.605164%, 64.24408%)" offset="0.40625"/><stop stop-opacity="1" stop-color="rgb(1.63269%, 40.870667%, 64.556885%)" offset="0.414062"/><stop stop-opacity="1" stop-color="rgb(1.626587%, 41.134644%, 64.868164%)" offset="0.421875"/><stop stop-opacity="1" stop-color="rgb(1.620483%, 41.398621%, 65.179443%)" offset="0.429688"/><stop stop-opacity="1" stop-color="rgb(1.61438%, 41.664124%, 65.492249%)" offset="0.4375"/><stop stop-opacity="1" stop-color="rgb(1.608276%, 41.928101%, 65.803528%)" offset="0.445312"/><stop stop-opacity="1" stop-color="rgb(1.602173%, 42.192078%, 66.114807%)" offset="0.453125"/><stop stop-opacity="1" stop-color="rgb(1.596069%, 42.457581%, 66.426086%)" offset="0.460938"/><stop stop-opacity="1" stop-color="rgb(1.591492%, 42.721558%, 66.738892%)" offset="0.46875"/><stop stop-opacity="1" stop-color="rgb(1.585388%, 42.985535%, 67.050171%)" offset="0.476562"/><stop stop-opacity="1" stop-color="rgb(1.579285%, 43.251038%, 67.36145%)" offset="0.484375"/><stop stop-opacity="1" stop-color="rgb(1.573181%, 43.515015%, 67.674255%)" offset="0.492188"/><stop stop-opacity="1" stop-color="rgb(1.567078%, 43.778992%, 67.985535%)" offset="0.5"/><stop stop-opacity="1" stop-color="rgb(1.560974%, 44.044495%, 68.296814%)" offset="0.507812"/><stop stop-opacity="1" stop-color="rgb(1.554871%, 44.308472%, 68.608093%)" offset="0.515625"/><stop stop-opacity="1" stop-color="rgb(1.548767%, 44.573975%, 68.920898%)" offset="0.523438"/><stop stop-opacity="1" stop-color="rgb(1.542664%, 44.837952%, 69.232178%)" offset="0.53125"/><stop stop-opacity="1" stop-color="rgb(1.53656%, 45.101929%, 69.543457%)" offset="0.539062"/><stop stop-opacity="1" stop-color="rgb(1.530457%, 45.367432%, 69.856262%)" offset="0.546875"/><stop stop-opacity="1" stop-color="rgb(1.524353%, 45.631409%, 70.167542%)" offset="0.554688"/><stop stop-opacity="1" stop-color="rgb(1.51825%, 45.895386%, 70.478821%)" offset="0.5625"/><stop stop-opacity="1" stop-color="rgb(1.512146%, 46.160889%, 70.791626%)" offset="0.570312"/><stop stop-opacity="1" stop-color="rgb(1.506042%, 46.424866%, 71.102905%)" offset="0.578125"/><stop stop-opacity="1" stop-color="rgb(1.501465%, 46.688843%, 71.414185%)" offset="0.585938"/><stop stop-opacity="1" stop-color="rgb(1.495361%, 46.954346%, 71.725464%)" offset="0.59375"/><stop stop-opacity="1" stop-color="rgb(1.489258%, 47.218323%, 72.038269%)" offset="0.601562"/><stop stop-opacity="1" stop-color="rgb(1.483154%, 47.4823%, 72.349548%)" offset="0.609375"/><stop stop-opacity="1" stop-color="rgb(1.477051%, 47.747803%, 72.660828%)" offset="0.617188"/><stop stop-opacity="1" stop-color="rgb(1.470947%, 48.01178%, 72.973633%)" offset="0.625"/><stop stop-opacity="1" stop-color="rgb(1.464844%, 48.277283%, 73.284912%)" offset="0.632812"/><stop stop-opacity="1" stop-color="rgb(1.45874%, 48.54126%, 73.596191%)" offset="0.640625"/><stop stop-opacity="1" stop-color="rgb(1.452637%, 48.805237%, 73.908997%)" offset="0.648438"/><stop stop-opacity="1" stop-color="rgb(1.446533%, 49.07074%, 74.220276%)" offset="0.65625"/><stop stop-opacity="1" stop-color="rgb(1.44043%, 49.334717%, 74.531555%)" offset="0.664062"/><stop stop-opacity="1" stop-color="rgb(1.434326%, 49.598694%, 74.842834%)" offset="0.671875"/><stop stop-opacity="1" stop-color="rgb(1.428223%, 49.864197%, 75.15564%)" offset="0.679688"/><stop stop-opacity="1" stop-color="rgb(1.422119%, 50.128174%, 75.466919%)" offset="0.6875"/><stop stop-opacity="1" stop-color="rgb(1.417542%, 50.392151%, 75.778198%)" offset="0.695312"/><stop stop-opacity="1" stop-color="rgb(1.411438%, 50.657654%, 76.091003%)" offset="0.703125"/><stop stop-opacity="1" stop-color="rgb(1.405334%, 50.921631%, 76.402283%)" offset="0.710938"/><stop stop-opacity="1" stop-color="rgb(1.399231%, 51.185608%, 76.713562%)" offset="0.71875"/><stop stop-opacity="1" stop-color="rgb(1.393127%, 51.451111%, 77.024841%)" offset="0.726562"/><stop stop-opacity="1" stop-color="rgb(1.387024%, 51.715088%, 77.337646%)" offset="0.734375"/><stop stop-opacity="1" stop-color="rgb(1.38092%, 51.980591%, 77.648926%)" offset="0.742188"/><stop stop-opacity="1" stop-color="rgb(1.374817%, 52.244568%, 77.960205%)" offset="0.75"/><stop stop-opacity="1" stop-color="rgb(1.368713%, 52.508545%, 78.27301%)" offset="0.757812"/><stop stop-opacity="1" stop-color="rgb(1.36261%, 52.774048%, 78.58429%)" offset="0.765625"/><stop stop-opacity="1" stop-color="rgb(1.356506%, 53.038025%, 78.895569%)" offset="0.773438"/><stop stop-opacity="1" stop-color="rgb(1.350403%, 53.302002%, 79.208374%)" offset="0.78125"/><stop stop-opacity="1" stop-color="rgb(1.344299%, 53.567505%, 79.519653%)" offset="0.789062"/><stop stop-opacity="1" stop-color="rgb(1.338196%, 53.831482%, 79.830933%)" offset="0.796875"/><stop stop-opacity="1" stop-color="rgb(1.333618%, 54.095459%, 80.142212%)" offset="0.804688"/><stop stop-opacity="1" stop-color="rgb(1.327515%, 54.360962%, 80.455017%)" offset="0.808934"/><stop stop-opacity="1" stop-color="rgb(1.324463%, 54.493713%, 80.610657%)" offset="0.8125"/><stop stop-opacity="1" stop-color="rgb(1.321411%, 54.624939%, 80.766296%)" offset="0.820312"/><stop stop-opacity="1" stop-color="rgb(1.315308%, 54.888916%, 81.077576%)" offset="0.828125"/><stop stop-opacity="1" stop-color="rgb(1.309204%, 55.154419%, 81.390381%)" offset="0.835938"/><stop stop-opacity="1" stop-color="rgb(1.303101%, 55.418396%, 81.70166%)" offset="0.84375"/><stop stop-opacity="1" stop-color="rgb(1.296997%, 55.683899%, 82.012939%)" offset="0.851562"/><stop stop-opacity="1" stop-color="rgb(1.290894%, 55.947876%, 82.324219%)" offset="0.859375"/><stop stop-opacity="1" stop-color="rgb(1.28479%, 56.211853%, 82.637024%)" offset="0.867188"/><stop stop-opacity="1" stop-color="rgb(1.278687%, 56.477356%, 82.948303%)" offset="0.875"/><stop stop-opacity="1" stop-color="rgb(1.272583%, 56.741333%, 83.259583%)" offset="0.882812"/><stop stop-opacity="1" stop-color="rgb(1.266479%, 57.00531%, 83.572388%)" offset="0.890625"/><stop stop-opacity="1" stop-color="rgb(1.260376%, 57.270813%, 83.883667%)" offset="0.898438"/><stop stop-opacity="1" stop-color="rgb(1.254272%, 57.53479%, 84.194946%)" offset="0.90625"/><stop stop-opacity="1" stop-color="rgb(1.249695%, 57.798767%, 84.507751%)" offset="0.914062"/><stop stop-opacity="1" stop-color="rgb(1.243591%, 58.06427%, 84.819031%)" offset="0.921875"/><stop stop-opacity="1" stop-color="rgb(1.237488%, 58.328247%, 85.13031%)" offset="0.929688"/><stop stop-opacity="1" stop-color="rgb(1.231384%, 58.592224%, 85.441589%)" offset="0.9375"/><stop stop-opacity="1" stop-color="rgb(1.225281%, 58.857727%, 85.754395%)" offset="0.945312"/><stop stop-opacity="1" stop-color="rgb(1.219177%, 59.121704%, 86.065674%)" offset="0.953125"/><stop stop-opacity="1" stop-color="rgb(1.213074%, 59.385681%, 86.376953%)" offset="0.960938"/><stop stop-opacity="1" stop-color="rgb(1.20697%, 59.651184%, 86.689758%)" offset="0.96875"/><stop stop-opacity="1" stop-color="rgb(1.200867%, 59.890747%, 86.972046%)" offset="1"/></linearGradient><clipPath id="09301dcec3"><path d="M 17 1.25 L 52 1.25 L 52 32 L 17 32 Z M 17 1.25 " clip-rule="nonzero"/></clipPath></defs><g fill="#efefef" fill-opacity="1"><g transform="translate(72.709203, 45.511774)"><g><path d="M 5.578125 0 L 1.21875 0 L 13.859375 -34.453125 L 18.171875 -34.453125 L 30.828125 0 L 26.453125 0 L 22.984375 -9.75 L 9.046875 -9.75 Z M 10.359375 -13.453125 L 21.671875 -13.453125 L 16.15625 -29 L 15.875 -29 Z M 10.359375 -13.453125 "/></g></g></g><g fill="#efefef" fill-opacity="1"><g transform="translate(104.735755, 45.511774)"><g><path d="M 14.875 -25.84375 L 14.875 -22.46875 L 9.359375 -22.46875 L 9.359375 -7.40625 C 9.359375 -6.28125 9.519531 -5.4375 9.84375 -4.875 C 10.175781 -4.320312 10.601562 -3.953125 11.125 -3.765625 C 11.644531 -3.585938 12.195312 -3.5 12.78125 -3.5 C 13.21875 -3.5 13.578125 -3.523438 13.859375 -3.578125 C 14.140625 -3.628906 14.363281 -3.671875 14.53125 -3.703125 L 15.34375 -0.140625 C 15.070312 -0.0351562 14.695312 0.0664062 14.21875 0.171875 C 13.738281 0.285156 13.125 0.34375 12.375 0.34375 C 11.257812 0.34375 10.164062 0.101562 9.09375 -0.375 C 8.019531 -0.863281 7.132812 -1.601562 6.4375 -2.59375 C 5.738281 -3.582031 5.390625 -4.828125 5.390625 -6.328125 L 5.390625 -22.46875 L 1.484375 -22.46875 L 1.484375 -25.84375 L 5.390625 -25.84375 L 5.390625 -32.03125 L 9.359375 -32.03125 L 9.359375 -25.84375 Z M 14.875 -25.84375 "/></g></g></g><g fill="#efefef" fill-opacity="1"><g transform="translate(121.960119, 45.511774)"><g><path d="M 14.46875 0.53125 C 11.976562 0.53125 9.832031 -0.0195312 8.03125 -1.125 C 6.226562 -2.226562 4.84375 -3.773438 3.875 -5.765625 C 2.90625 -7.753906 2.421875 -10.070312 2.421875 -12.71875 C 2.421875 -15.363281 2.90625 -17.695312 3.875 -19.71875 C 4.84375 -21.75 6.195312 -23.332031 7.9375 -24.46875 C 9.6875 -25.601562 11.726562 -26.171875 14.0625 -26.171875 C 15.40625 -26.171875 16.734375 -25.945312 18.046875 -25.5 C 19.359375 -25.050781 20.550781 -24.320312 21.625 -23.3125 C 22.707031 -22.3125 23.566406 -20.988281 24.203125 -19.34375 C 24.847656 -17.695312 25.171875 -15.664062 25.171875 -13.25 L 25.171875 -11.578125 L 6.40625 -11.578125 C 6.5 -8.816406 7.28125 -6.703125 8.75 -5.234375 C 10.226562 -3.765625 12.132812 -3.03125 14.46875 -3.03125 C 16.03125 -3.03125 17.367188 -3.363281 18.484375 -4.03125 C 19.609375 -4.707031 20.421875 -5.71875 20.921875 -7.0625 L 24.765625 -5.984375 C 24.160156 -4.035156 22.945312 -2.460938 21.125 -1.265625 C 19.3125 -0.0664062 17.09375 0.53125 14.46875 0.53125 Z M 6.40625 -15 L 21.125 -15 C 21.125 -17.1875 20.484375 -19 19.203125 -20.4375 C 17.929688 -21.882812 16.21875 -22.609375 14.0625 -22.609375 C 12.550781 -22.609375 11.238281 -22.253906 10.125 -21.546875 C 9.019531 -20.835938 8.144531 -19.90625 7.5 -18.75 C 6.863281 -17.59375 6.5 -16.34375 6.40625 -15 Z M 6.40625 -15 "/></g></g></g><g fill="#efefef" fill-opacity="1"><g transform="translate(149.54602, 45.511774)"><g><path d="M 7.609375 -34.453125 L 7.609375 0 L 3.640625 0 L 3.640625 -34.453125 Z M 7.609375 -34.453125 "/></g></g></g><g fill="#efefef" fill-opacity="1"><g transform="translate(160.782229, 45.511774)"><g><path d="M 3.640625 0 L 3.640625 -25.84375 L 7.609375 -25.84375 L 7.609375 0 Z M 5.65625 -30.140625 C 4.875 -30.140625 4.207031 -30.40625 3.65625 -30.9375 C 3.101562 -31.46875 2.828125 -32.101562 2.828125 -32.84375 C 2.828125 -33.582031 3.101562 -34.210938 3.65625 -34.734375 C 4.207031 -35.265625 4.875 -35.53125 5.65625 -35.53125 C 6.425781 -35.53125 7.085938 -35.265625 7.640625 -34.734375 C 8.203125 -34.210938 8.484375 -33.582031 8.484375 -32.84375 C 8.484375 -32.101562 8.203125 -31.46875 7.640625 -30.9375 C 7.085938 -30.40625 6.425781 -30.140625 5.65625 -30.140625 Z M 5.65625 -30.140625 "/></g></g></g><g fill="#efefef" fill-opacity="1"><g transform="translate(172.018438, 45.511774)"><g><path d="M 14.46875 0.53125 C 11.976562 0.53125 9.832031 -0.0195312 8.03125 -1.125 C 6.226562 -2.226562 4.84375 -3.773438 3.875 -5.765625 C 2.90625 -7.753906 2.421875 -10.070312 2.421875 -12.71875 C 2.421875 -15.363281 2.90625 -17.695312 3.875 -19.71875 C 4.84375 -21.75 6.195312 -23.332031 7.9375 -24.46875 C 9.6875 -25.601562 11.726562 -26.171875 14.0625 -26.171875 C 15.40625 -26.171875 16.734375 -25.945312 18.046875 -25.5 C 19.359375 -25.050781 20.550781 -24.320312 21.625 -23.3125 C 22.707031 -22.3125 23.566406 -20.988281 24.203125 -19.34375 C 24.847656 -17.695312 25.171875 -15.664062 25.171875 -13.25 L 25.171875 -11.578125 L 6.40625 -11.578125 C 6.5 -8.816406 7.28125 -6.703125 8.75 -5.234375 C 10.226562 -3.765625 12.132812 -3.03125 14.46875 -3.03125 C 16.03125 -3.03125 17.367188 -3.363281 18.484375 -4.03125 C 19.609375 -4.707031 20.421875 -5.71875 20.921875 -7.0625 L 24.765625 -5.984375 C 24.160156 -4.035156 22.945312 -2.460938 21.125 -1.265625 C 19.3125 -0.0664062 17.09375 0.53125 14.46875 0.53125 Z M 6.40625 -15 L 21.125 -15 C 21.125 -17.1875 20.484375 -19 19.203125 -20.4375 C 17.929688 -21.882812 16.21875 -22.609375 14.0625 -22.609375 C 12.550781 -22.609375 11.238281 -22.253906 10.125 -21.546875 C 9.019531 -20.835938 8.144531 -19.90625 7.5 -18.75 C 6.863281 -17.59375 6.5 -16.34375 6.40625 -15 Z M 6.40625 -15 "/></g></g></g><g fill="#efefef" fill-opacity="1"><g transform="translate(199.604339, 45.511774)"><g><path d="M 3.640625 0 L 3.640625 -25.84375 L 7.46875 -25.84375 L 7.46875 -21.9375 L 7.734375 -21.9375 C 8.191406 -23.21875 9.035156 -24.253906 10.265625 -25.046875 C 11.503906 -25.847656 12.90625 -26.25 14.46875 -26.25 C 15.1875 -26.25 15.8125 -26.160156 16.34375 -25.984375 C 16.882812 -25.816406 17.359375 -25.585938 17.765625 -25.296875 L 16.421875 -21.9375 C 16.140625 -22.082031 15.8125 -22.195312 15.4375 -22.28125 C 15.0625 -22.363281 14.625 -22.40625 14.125 -22.40625 C 12.25 -22.40625 10.691406 -21.828125 9.453125 -20.671875 C 8.222656 -19.523438 7.609375 -18.085938 7.609375 -16.359375 L 7.609375 0 Z M 3.640625 0 "/></g></g></g><g clip-path="url(#5451754fd8)"><path fill="#0399df" d="M 32.761719 30.1875 C 35.730469 28.292969 37.746094 25.207031 38.28125 21.71875 C 43.683594 23.449219 48.324219 26.890625 51.550781 31.460938 L 53.917969 35.574219 L 55.65625 38.59375 L 65.25 55.242188 C 43.023438 53.171875 41.355469 35.097656 27.515625 32.03125 C 29.363281 31.828125 31.160156 31.207031 32.761719 30.1875 Z M 32.761719 30.1875 " fill-opacity="1" fill-rule="evenodd"/></g><g clip-path="url(#b54d4024ba)"><g clip-path="url(#2300f97a53)"><path fill="url(#d8eed5f304)" d="M 0 31.085938 L 0 55.25 L 41.984375 55.25 L 41.984375 31.085938 Z M 0 31.085938 " fill-rule="nonzero"/></g></g><g clip-path="url(#09301dcec3)"><path fill="#02aeec" d="M 30.582031 1.253906 C 34.914062 1.984375 36.597656 5.515625 38.675781 9.117188 L 51.550781 31.460938 C 48.324219 26.890625 43.683594 23.449219 38.285156 21.71875 C 31.363281 19.5 23.832031 20.296875 17.527344 23.914062 Z M 30.582031 1.253906 " fill-opacity="1" fill-rule="evenodd"/></g></svg>