<svg xmlns="http://www.w3.org/2000/svg" xmlns:xlink="http://www.w3.org/1999/xlink" width="500" zoomAndPan="magnify" viewBox="0 0 375 374.999991" height="500" preserveAspectRatio="xMidYMid meet" version="1.0"><defs><g/><clipPath id="01cf6cc33a"><path d="M 32 25 L 70.039062 25 L 70.039062 59.484375 L 32 59.484375 Z M 32 25 " clip-rule="nonzero"/></clipPath><clipPath id="3ff9b536b1"><path d="M 4.789062 36 L 47 36 L 47 59 L 4.789062 59 Z M 4.789062 36 " clip-rule="nonzero"/></clipPath><clipPath id="50b67ec962"><path d="M 4.789062 58.570312 C 15.386719 40.179688 11.410156 38.542969 32.304688 36.265625 C 38.671875 37.675781 42.496094 42.410156 46.777344 46.910156 C 30.652344 35.320312 26.707031 61.410156 4.789062 58.570312 Z M 4.789062 58.570312 " clip-rule="evenodd"/></clipPath><linearGradient x1="-123.656221" gradientTransform="matrix(0.0105421, 0, 0, 0.010564, 4.789935, 5.48981)" y1="3124.381583" x2="4087.479044" gradientUnits="userSpaceOnUse" y2="4856.214729" id="2706910cb7"><stop stop-opacity="1" stop-color="rgb(1.947021%, 26.983643%, 48.190308%)" offset="0"/><stop stop-opacity="1" stop-color="rgb(1.94397%, 27.114868%, 48.345947%)" offset="0.0078125"/><stop stop-opacity="1" stop-color="rgb(1.937866%, 27.378845%, 48.658752%)" offset="0.015625"/><stop stop-opacity="1" stop-color="rgb(1.931763%, 27.644348%, 48.970032%)" offset="0.0234375"/><stop stop-opacity="1" stop-color="rgb(1.927185%, 27.908325%, 49.281311%)" offset="0.03125"/><stop stop-opacity="1" stop-color="rgb(1.921082%, 28.172302%, 49.594116%)" offset="0.0390625"/><stop stop-opacity="1" stop-color="rgb(1.914978%, 28.437805%, 49.905396%)" offset="0.046875"/><stop stop-opacity="1" stop-color="rgb(1.908875%, 28.701782%, 50.216675%)" offset="0.0546875"/><stop stop-opacity="1" stop-color="rgb(1.902771%, 28.967285%, 50.527954%)" offset="0.0625"/><stop stop-opacity="1" stop-color="rgb(1.896667%, 29.231262%, 50.840759%)" offset="0.0703125"/><stop stop-opacity="1" stop-color="rgb(1.890564%, 29.495239%, 51.152039%)" offset="0.078125"/><stop stop-opacity="1" stop-color="rgb(1.88446%, 29.760742%, 51.463318%)" offset="0.0859375"/><stop stop-opacity="1" stop-color="rgb(1.878357%, 30.024719%, 51.776123%)" offset="0.09375"/><stop stop-opacity="1" stop-color="rgb(1.872253%, 30.288696%, 52.087402%)" offset="0.101562"/><stop stop-opacity="1" stop-color="rgb(1.86615%, 30.554199%, 52.398682%)" offset="0.109375"/><stop stop-opacity="1" stop-color="rgb(1.860046%, 30.818176%, 52.709961%)" offset="0.117188"/><stop stop-opacity="1" stop-color="rgb(1.853943%, 31.082153%, 53.022766%)" offset="0.125"/><stop stop-opacity="1" stop-color="rgb(1.847839%, 31.347656%, 53.334045%)" offset="0.132813"/><stop stop-opacity="1" stop-color="rgb(1.843262%, 31.611633%, 53.645325%)" offset="0.140625"/><stop stop-opacity="1" stop-color="rgb(1.837158%, 31.87561%, 53.95813%)" offset="0.148438"/><stop stop-opacity="1" stop-color="rgb(1.831055%, 32.141113%, 54.269409%)" offset="0.15625"/><stop stop-opacity="1" stop-color="rgb(1.824951%, 32.40509%, 54.580688%)" offset="0.164062"/><stop stop-opacity="1" stop-color="rgb(1.818848%, 32.670593%, 54.893494%)" offset="0.171875"/><stop stop-opacity="1" stop-color="rgb(1.812744%, 32.93457%, 55.204773%)" offset="0.179688"/><stop stop-opacity="1" stop-color="rgb(1.806641%, 33.198547%, 55.516052%)" offset="0.1875"/><stop stop-opacity="1" stop-color="rgb(1.800537%, 33.46405%, 55.827332%)" offset="0.191066"/><stop stop-opacity="1" stop-color="rgb(1.797485%, 33.596802%, 55.984497%)" offset="0.195312"/><stop stop-opacity="1" stop-color="rgb(1.794434%, 33.728027%, 56.140137%)" offset="0.203125"/><stop stop-opacity="1" stop-color="rgb(1.78833%, 33.992004%, 56.451416%)" offset="0.210938"/><stop stop-opacity="1" stop-color="rgb(1.782227%, 34.257507%, 56.762695%)" offset="0.21875"/><stop stop-opacity="1" stop-color="rgb(1.776123%, 34.521484%, 57.0755%)" offset="0.226563"/><stop stop-opacity="1" stop-color="rgb(1.77002%, 34.785461%, 57.38678%)" offset="0.234375"/><stop stop-opacity="1" stop-color="rgb(1.763916%, 35.050964%, 57.698059%)" offset="0.242188"/><stop stop-opacity="1" stop-color="rgb(1.759338%, 35.314941%, 58.009338%)" offset="0.25"/><stop stop-opacity="1" stop-color="rgb(1.753235%, 35.578918%, 58.322144%)" offset="0.257813"/><stop stop-opacity="1" stop-color="rgb(1.747131%, 35.844421%, 58.633423%)" offset="0.265625"/><stop stop-opacity="1" stop-color="rgb(1.741028%, 36.108398%, 58.944702%)" offset="0.273438"/><stop stop-opacity="1" stop-color="rgb(1.734924%, 36.373901%, 59.257507%)" offset="0.28125"/><stop stop-opacity="1" stop-color="rgb(1.728821%, 36.637878%, 59.568787%)" offset="0.289063"/><stop stop-opacity="1" stop-color="rgb(1.722717%, 36.901855%, 59.880066%)" offset="0.296875"/><stop stop-opacity="1" stop-color="rgb(1.716614%, 37.167358%, 60.192871%)" offset="0.304688"/><stop stop-opacity="1" stop-color="rgb(1.71051%, 37.431335%, 60.50415%)" offset="0.3125"/><stop stop-opacity="1" stop-color="rgb(1.704407%, 37.695312%, 60.81543%)" offset="0.320313"/><stop stop-opacity="1" stop-color="rgb(1.698303%, 37.960815%, 61.126709%)" offset="0.328125"/><stop stop-opacity="1" stop-color="rgb(1.6922%, 38.224792%, 61.439514%)" offset="0.335938"/><stop stop-opacity="1" stop-color="rgb(1.686096%, 38.48877%, 61.750793%)" offset="0.34375"/><stop stop-opacity="1" stop-color="rgb(1.679993%, 38.754272%, 62.062073%)" offset="0.351563"/><stop stop-opacity="1" stop-color="rgb(1.675415%, 39.01825%, 62.374878%)" offset="0.359375"/><stop stop-opacity="1" stop-color="rgb(1.669312%, 39.282227%, 62.686157%)" offset="0.367188"/><stop stop-opacity="1" stop-color="rgb(1.663208%, 39.547729%, 62.997437%)" offset="0.375"/><stop stop-opacity="1" stop-color="rgb(1.657104%, 39.811707%, 63.308716%)" offset="0.382812"/><stop stop-opacity="1" stop-color="rgb(1.651001%, 40.075684%, 63.621521%)" offset="0.390625"/><stop stop-opacity="1" stop-color="rgb(1.644897%, 40.341187%, 63.9328%)" offset="0.398438"/><stop stop-opacity="1" stop-color="rgb(1.638794%, 40.605164%, 64.24408%)" offset="0.40625"/><stop stop-opacity="1" stop-color="rgb(1.63269%, 40.870667%, 64.556885%)" offset="0.414063"/><stop stop-opacity="1" stop-color="rgb(1.626587%, 41.134644%, 64.868164%)" offset="0.421875"/><stop stop-opacity="1" stop-color="rgb(1.620483%, 41.398621%, 65.179443%)" offset="0.429688"/><stop stop-opacity="1" stop-color="rgb(1.61438%, 41.664124%, 65.492249%)" offset="0.4375"/><stop stop-opacity="1" stop-color="rgb(1.608276%, 41.928101%, 65.803528%)" offset="0.445313"/><stop stop-opacity="1" stop-color="rgb(1.602173%, 42.192078%, 66.114807%)" offset="0.453125"/><stop stop-opacity="1" stop-color="rgb(1.596069%, 42.457581%, 66.426086%)" offset="0.460938"/><stop stop-opacity="1" stop-color="rgb(1.591492%, 42.721558%, 66.738892%)" offset="0.46875"/><stop stop-opacity="1" stop-color="rgb(1.585388%, 42.985535%, 67.050171%)" offset="0.476562"/><stop stop-opacity="1" stop-color="rgb(1.579285%, 43.251038%, 67.36145%)" offset="0.484375"/><stop stop-opacity="1" stop-color="rgb(1.573181%, 43.515015%, 67.674255%)" offset="0.492188"/><stop stop-opacity="1" stop-color="rgb(1.567078%, 43.778992%, 67.985535%)" offset="0.5"/><stop stop-opacity="1" stop-color="rgb(1.560974%, 44.044495%, 68.296814%)" offset="0.507813"/><stop stop-opacity="1" stop-color="rgb(1.554871%, 44.308472%, 68.608093%)" offset="0.515625"/><stop stop-opacity="1" stop-color="rgb(1.548767%, 44.573975%, 68.920898%)" offset="0.523438"/><stop stop-opacity="1" stop-color="rgb(1.542664%, 44.837952%, 69.232178%)" offset="0.53125"/><stop stop-opacity="1" stop-color="rgb(1.53656%, 45.101929%, 69.543457%)" offset="0.539062"/><stop stop-opacity="1" stop-color="rgb(1.530457%, 45.367432%, 69.856262%)" offset="0.546875"/><stop stop-opacity="1" stop-color="rgb(1.524353%, 45.631409%, 70.167542%)" offset="0.554688"/><stop stop-opacity="1" stop-color="rgb(1.51825%, 45.895386%, 70.478821%)" offset="0.5625"/><stop stop-opacity="1" stop-color="rgb(1.512146%, 46.160889%, 70.791626%)" offset="0.570312"/><stop stop-opacity="1" stop-color="rgb(1.506042%, 46.424866%, 71.102905%)" offset="0.578125"/><stop stop-opacity="1" stop-color="rgb(1.501465%, 46.688843%, 71.414185%)" offset="0.585938"/><stop stop-opacity="1" stop-color="rgb(1.495361%, 46.954346%, 71.725464%)" offset="0.59375"/><stop stop-opacity="1" stop-color="rgb(1.489258%, 47.218323%, 72.038269%)" offset="0.601562"/><stop stop-opacity="1" stop-color="rgb(1.483154%, 47.4823%, 72.349548%)" offset="0.609375"/><stop stop-opacity="1" stop-color="rgb(1.477051%, 47.747803%, 72.660828%)" offset="0.617187"/><stop stop-opacity="1" stop-color="rgb(1.470947%, 48.01178%, 72.973633%)" offset="0.625"/><stop stop-opacity="1" stop-color="rgb(1.464844%, 48.277283%, 73.284912%)" offset="0.632812"/><stop stop-opacity="1" stop-color="rgb(1.45874%, 48.54126%, 73.596191%)" offset="0.640625"/><stop stop-opacity="1" stop-color="rgb(1.452637%, 48.805237%, 73.907471%)" offset="0.648438"/><stop stop-opacity="1" stop-color="rgb(1.446533%, 49.07074%, 74.220276%)" offset="0.65625"/><stop stop-opacity="1" stop-color="rgb(1.44043%, 49.334717%, 74.531555%)" offset="0.664062"/><stop stop-opacity="1" stop-color="rgb(1.434326%, 49.598694%, 74.842834%)" offset="0.671875"/><stop stop-opacity="1" stop-color="rgb(1.428223%, 49.864197%, 75.15564%)" offset="0.679687"/><stop stop-opacity="1" stop-color="rgb(1.422119%, 50.128174%, 75.466919%)" offset="0.6875"/><stop stop-opacity="1" stop-color="rgb(1.417542%, 50.392151%, 75.778198%)" offset="0.695312"/><stop stop-opacity="1" stop-color="rgb(1.411438%, 50.657654%, 76.091003%)" offset="0.703125"/><stop stop-opacity="1" stop-color="rgb(1.405334%, 50.921631%, 76.402283%)" offset="0.710938"/><stop stop-opacity="1" stop-color="rgb(1.399231%, 51.185608%, 76.713562%)" offset="0.71875"/><stop stop-opacity="1" stop-color="rgb(1.393127%, 51.451111%, 77.024841%)" offset="0.726562"/><stop stop-opacity="1" stop-color="rgb(1.387024%, 51.715088%, 77.337646%)" offset="0.734375"/><stop stop-opacity="1" stop-color="rgb(1.38092%, 51.980591%, 77.648926%)" offset="0.742188"/><stop stop-opacity="1" stop-color="rgb(1.374817%, 52.244568%, 77.960205%)" offset="0.75"/><stop stop-opacity="1" stop-color="rgb(1.368713%, 52.508545%, 78.27301%)" offset="0.757812"/><stop stop-opacity="1" stop-color="rgb(1.36261%, 52.774048%, 78.58429%)" offset="0.765625"/><stop stop-opacity="1" stop-color="rgb(1.356506%, 53.038025%, 78.895569%)" offset="0.773438"/><stop stop-opacity="1" stop-color="rgb(1.350403%, 53.302002%, 79.208374%)" offset="0.78125"/><stop stop-opacity="1" stop-color="rgb(1.344299%, 53.567505%, 79.519653%)" offset="0.789062"/><stop stop-opacity="1" stop-color="rgb(1.338196%, 53.831482%, 79.830933%)" offset="0.796875"/><stop stop-opacity="1" stop-color="rgb(1.333618%, 54.095459%, 80.142212%)" offset="0.804688"/><stop stop-opacity="1" stop-color="rgb(1.327515%, 54.360962%, 80.455017%)" offset="0.808934"/><stop stop-opacity="1" stop-color="rgb(1.324463%, 54.493713%, 80.610657%)" offset="0.8125"/><stop stop-opacity="1" stop-color="rgb(1.321411%, 54.624939%, 80.766296%)" offset="0.820313"/><stop stop-opacity="1" stop-color="rgb(1.315308%, 54.888916%, 81.077576%)" offset="0.828125"/><stop stop-opacity="1" stop-color="rgb(1.309204%, 55.154419%, 81.390381%)" offset="0.835938"/><stop stop-opacity="1" stop-color="rgb(1.303101%, 55.418396%, 81.70166%)" offset="0.84375"/><stop stop-opacity="1" stop-color="rgb(1.296997%, 55.682373%, 82.012939%)" offset="0.851562"/><stop stop-opacity="1" stop-color="rgb(1.290894%, 55.947876%, 82.324219%)" offset="0.859375"/><stop stop-opacity="1" stop-color="rgb(1.28479%, 56.211853%, 82.637024%)" offset="0.867188"/><stop stop-opacity="1" stop-color="rgb(1.278687%, 56.477356%, 82.948303%)" offset="0.875"/><stop stop-opacity="1" stop-color="rgb(1.272583%, 56.741333%, 83.259583%)" offset="0.882813"/><stop stop-opacity="1" stop-color="rgb(1.266479%, 57.00531%, 83.572388%)" offset="0.890625"/><stop stop-opacity="1" stop-color="rgb(1.260376%, 57.270813%, 83.883667%)" offset="0.898438"/><stop stop-opacity="1" stop-color="rgb(1.254272%, 57.53479%, 84.194946%)" offset="0.90625"/><stop stop-opacity="1" stop-color="rgb(1.249695%, 57.798767%, 84.507751%)" offset="0.914062"/><stop stop-opacity="1" stop-color="rgb(1.243591%, 58.06427%, 84.819031%)" offset="0.921875"/><stop stop-opacity="1" stop-color="rgb(1.237488%, 58.328247%, 85.13031%)" offset="0.929688"/><stop stop-opacity="1" stop-color="rgb(1.231384%, 58.592224%, 85.441589%)" offset="0.9375"/><stop stop-opacity="1" stop-color="rgb(1.225281%, 58.857727%, 85.754395%)" offset="0.945312"/><stop stop-opacity="1" stop-color="rgb(1.219177%, 59.121704%, 86.065674%)" offset="0.953125"/><stop stop-opacity="1" stop-color="rgb(1.213074%, 59.385681%, 86.376953%)" offset="0.960938"/><stop stop-opacity="1" stop-color="rgb(1.20697%, 59.651184%, 86.689758%)" offset="0.96875"/><stop stop-opacity="1" stop-color="rgb(1.200867%, 59.890747%, 86.972046%)" offset="1"/></linearGradient><clipPath id="ce797ab2e8"><path d="M 22 5.484375 L 57 5.484375 L 57 36 L 22 36 Z M 22 5.484375 " clip-rule="nonzero"/></clipPath></defs><g fill="#202940" fill-opacity="1"><g transform="translate(86.489817, 54.621403)"><g><path d="M 24.625 -16.78125 C 24.0625 -13.40625 23.734375 -10.84375 23.734375 -7.90625 C 23.734375 -3.0625 26.859375 0 31.390625 0 C 37.265625 0 42.375 -5.546875 42.953125 -9.4375 C 43.078125 -10.46875 42.6875 -11.109375 41.734375 -11.109375 C 40.84375 -9.3125 38.15625 -5.546875 35.03125 -5.546875 C 32.859375 -5.546875 31.515625 -7.140625 32.15625 -10.84375 L 37.390625 -40.90625 C 38.21875 -45.6875 37.453125 -47.859375 32.296875 -47.859375 C 23.15625 -47.859375 19.203125 -44.09375 16.265625 -35.921875 L 11.421875 -22.46875 C 10.65625 -22.59375 9.890625 -22.65625 9.125 -22.65625 C 5.9375 -22.65625 4.015625 -21 4.015625 -18.4375 C 4.015625 -16.71875 5.046875 -15.890625 5.046875 -15.890625 C 5.046875 -15.890625 6.640625 -17.03125 9.515625 -17.359375 C 6.375 -9.765625 3.375 -7.59375 0.578125 -7.59375 C -0.953125 -7.59375 -1.65625 -8.109375 -1.65625 -8.109375 C -1.65625 -8.109375 -2.546875 -7.140625 -2.546875 -4.90625 C -2.546875 -1.984375 -0.765625 0 1.921875 0 C 5.484375 0 8.046875 -1.984375 11.734375 -12.1875 L 13.65625 -17.484375 L 24.765625 -17.484375 Z M 15.25 -21.890625 L 20.359375 -36.046875 C 21.890625 -40.390625 24.953125 -44.34375 29.21875 -44.34375 C 29.21875 -44.34375 29.21875 -43.140625 28.90625 -41.21875 L 25.328125 -21 C 20.671875 -21.0625 17.671875 -21.5 15.25 -21.890625 Z M 15.25 -21.890625 "/></g></g></g><g fill="#202940" fill-opacity="1"><g transform="translate(128.858783, 54.621403)"><g><path d="M -0.390625 -31.90625 C -1.78125 -31.90625 -2.546875 -31.140625 -2.546875 -30.0625 C -2.546875 -29.21875 -2.109375 -28.71875 -2.109375 -28.71875 L 2.046875 -28.71875 L -0.3125 -15.25 C -0.890625 -12 -1.015625 -9.890625 -1.015625 -8.421875 C -1.015625 -3.3125 2.6875 0 7.40625 0 C 13.46875 0 18.640625 -5.546875 19.59375 -9.4375 C 19.84375 -10.53125 19.265625 -11.109375 18.4375 -11.109375 C 17.03125 -8.421875 14.421875 -5.546875 10.78125 -5.546875 C 7.78125 -5.546875 6.515625 -7.65625 7.140625 -11.171875 L 10.203125 -28.71875 L 15.375 -28.71875 C 16.78125 -28.71875 17.546875 -29.484375 17.546875 -30.5625 C 17.546875 -31.390625 17.109375 -31.90625 17.109375 -31.90625 L 10.78125 -31.90625 L 11.359375 -35.09375 C 12.1875 -39.5625 11.546875 -41.421875 6.640625 -41.421875 C 4.28125 -41.421875 3.3125 -40.84375 3.3125 -40.84375 C 3.3125 -40.84375 4.015625 -39.375 3.25 -35.359375 L 2.609375 -31.90625 Z M -0.390625 -31.90625 "/></g></g></g><g fill="#202940" fill-opacity="1"><g transform="translate(147.87377, 54.621403)"><g><path d="M 12.5 0 C 22.265625 0 28.390625 -6.640625 28.96875 -9.4375 C 29.21875 -10.59375 28.78125 -11.109375 27.953125 -11.109375 C 26.234375 -8.421875 22.328125 -5.046875 15.5 -5.046875 C 10.078125 -5.046875 6.765625 -8.75 6.375 -13.53125 C 17.609375 -15.640625 24.3125 -19.46875 24.3125 -25.265625 C 24.3125 -28.53125 21.703125 -31.90625 15.1875 -31.90625 C 6.703125 -31.90625 -1.921875 -25.078125 -1.921875 -13.78125 C -1.921875 -5.171875 4.140625 0 12.5 0 Z M 15.25 -28.71875 C 16.59375 -28.71875 17.484375 -27.828125 17.484375 -26.484375 C 17.484375 -22.265625 14.234375 -18.375 6.4375 -16.53125 C 7.140625 -24.5 11.609375 -28.71875 15.25 -28.71875 Z M 15.25 -28.71875 "/></g></g></g><g fill="#202940" fill-opacity="1"><g transform="translate(176.651482, 54.621403)"><g><path d="M -0.703125 -14.03125 C -1.15625 -11.484375 -1.28125 -9.25 -1.28125 -7.96875 C -1.28125 -2.875 1.78125 0 6.1875 0 C 12.375 0 17.359375 -6.0625 18 -9.4375 C 18.1875 -10.59375 17.609375 -11.109375 16.78125 -11.109375 C 15.125 -7.65625 12.25 -5.546875 9.703125 -5.546875 C 7.40625 -5.546875 6.3125 -7.40625 6.953125 -11.171875 L 13.203125 -46.640625 C 13.96875 -51.109375 13.40625 -52.96875 8.484375 -52.96875 C 6.125 -52.96875 5.171875 -52.390625 5.171875 -52.390625 C 5.171875 -52.390625 5.8125 -50.921875 5.109375 -46.90625 Z M -0.703125 -14.03125 "/></g></g></g><g fill="#202940" fill-opacity="1"><g transform="translate(194.071254, 54.621403)"><g><path d="M -0.703125 -14.03125 C -1.15625 -11.484375 -1.28125 -9.25 -1.28125 -7.96875 C -1.28125 -2.875 1.78125 0 6.1875 0 C 12.375 0 16.96875 -6.0625 17.609375 -9.4375 C 17.796875 -10.59375 17.234375 -11.109375 16.40625 -11.109375 C 14.734375 -7.65625 11.875 -5.546875 9.703125 -5.546875 C 7.40625 -5.546875 6.3125 -7.34375 6.953125 -11.171875 L 9.4375 -25.59375 C 10.203125 -30.0625 9.640625 -31.90625 4.71875 -31.90625 C 2.359375 -31.90625 1.40625 -31.328125 1.40625 -31.328125 C 1.40625 -31.328125 2.046875 -29.921875 1.34375 -25.84375 Z M 3.578125 -41.484375 C 3.578125 -39.25 5.109375 -37.65625 7.40625 -37.65625 C 10.203125 -37.65625 12 -39.8125 12 -42.046875 C 12 -44.34375 10.46875 -46.078125 8.046875 -46.078125 C 5.609375 -46.078125 3.578125 -44.09375 3.578125 -41.484375 Z M 3.578125 -41.484375 "/></g></g></g><g fill="#202940" fill-opacity="1"><g transform="translate(211.108175, 54.621403)"><g><path d="M 12.5 0 C 22.265625 0 28.390625 -6.640625 28.96875 -9.4375 C 29.21875 -10.59375 28.78125 -11.109375 27.953125 -11.109375 C 26.234375 -8.421875 22.328125 -5.046875 15.5 -5.046875 C 10.078125 -5.046875 6.765625 -8.75 6.375 -13.53125 C 17.609375 -15.640625 24.3125 -19.46875 24.3125 -25.265625 C 24.3125 -28.53125 21.703125 -31.90625 15.1875 -31.90625 C 6.703125 -31.90625 -1.921875 -25.078125 -1.921875 -13.78125 C -1.921875 -5.171875 4.140625 0 12.5 0 Z M 15.25 -28.71875 C 16.59375 -28.71875 17.484375 -27.828125 17.484375 -26.484375 C 17.484375 -22.265625 14.234375 -18.375 6.4375 -16.53125 C 7.140625 -24.5 11.609375 -28.71875 15.25 -28.71875 Z M 15.25 -28.71875 "/></g></g></g><g fill="#202940" fill-opacity="1"><g transform="translate(239.885887, 54.621403)"><g><path d="M 9.890625 -25.59375 C 10.65625 -29.859375 10.078125 -31.90625 5.171875 -31.90625 C 2.8125 -31.90625 1.84375 -31.328125 1.84375 -31.328125 C 1.84375 -31.328125 2.484375 -29.859375 1.78125 -25.84375 L -1.59375 -6.3125 C -2.359375 -1.84375 -1.78125 0 3.125 0 C 5.484375 0 6.4375 -0.578125 6.4375 -0.578125 C 6.4375 -0.578125 5.8125 -1.921875 6.4375 -5.671875 C 7.96875 -14.671875 10.078125 -18.640625 12.5 -22.015625 C 14.609375 -24.953125 16.015625 -25.78125 17.03125 -25.78125 C 18 -25.78125 18.375 -25.265625 18.375 -24.375 C 18.375 -22.65625 17.546875 -21.1875 17.546875 -21.1875 C 17.546875 -21.1875 18.765625 -20.796875 20.421875 -20.796875 C 23.546875 -20.796875 25.71875 -23.359375 25.71875 -26.921875 C 25.71875 -30.1875 23.734375 -31.90625 20.609375 -31.90625 C 17.734375 -31.90625 13.46875 -29.671875 9.375 -22.78125 Z M 9.890625 -25.59375 "/></g></g></g><g clip-path="url(#01cf6cc33a)"><path fill="#0399df" d="M 37.550781 34.421875 C 40.523438 32.527344 42.535156 29.441406 43.074219 25.953125 C 48.472656 27.683594 53.113281 31.125 56.339844 35.695312 L 58.707031 39.808594 L 60.449219 42.828125 L 70.039062 59.476562 C 47.8125 57.40625 46.144531 39.332031 32.304688 36.265625 C 34.152344 36.0625 35.949219 35.441406 37.550781 34.421875 Z M 37.550781 34.421875 " fill-opacity="1" fill-rule="evenodd"/></g><g clip-path="url(#3ff9b536b1)"><g clip-path="url(#50b67ec962)"><path fill="url(#2706910cb7)" d="M 4.789062 35.320312 L 4.789062 59.484375 L 46.777344 59.484375 L 46.777344 35.320312 Z M 4.789062 35.320312 " fill-rule="nonzero"/></g></g><g clip-path="url(#ce797ab2e8)"><path fill="#02aeec" d="M 35.371094 5.488281 C 39.703125 6.222656 41.390625 9.75 43.464844 13.351562 L 56.339844 35.695312 C 53.113281 31.125 48.472656 27.683594 43.074219 25.953125 C 36.152344 23.738281 28.621094 24.535156 22.316406 28.148438 Z M 35.371094 5.488281 " fill-opacity="1" fill-rule="evenodd"/></g></svg>