<svg xmlns="http://www.w3.org/2000/svg" xmlns:xlink="http://www.w3.org/1999/xlink" width="500" zoomAndPan="magnify" viewBox="0 0 375 374.999991" height="500" preserveAspectRatio="xMidYMid meet" version="1.0"><defs><g/><clipPath id="d0cc674619"><path d="M 47 177 L 102.164062 177 L 102.164062 226.375 L 47 226.375 Z M 47 177 " clip-rule="nonzero"/></clipPath><clipPath id="44ea329cef"><path d="M 7.664062 192 L 69 192 L 69 226 L 7.664062 226 Z M 7.664062 192 " clip-rule="nonzero"/></clipPath><clipPath id="6f932df809"><path d="M 7.664062 225.054688 C 23.011719 198.492188 17.253906 196.125 47.515625 192.835938 C 56.734375 194.875 62.277344 201.714844 68.472656 208.214844 C 45.121094 191.472656 39.410156 229.15625 7.664062 225.054688 Z M 7.664062 225.054688 " clip-rule="evenodd"/></clipPath><linearGradient x1="-123.655845" gradientTransform="matrix(0.0152679, 0, 0, 0.0152595, 7.6659, 148.383376)" y1="3124.381738" x2="4087.459249" gradientUnits="userSpaceOnUse" y2="4856.206588" id="94cf54061e"><stop stop-opacity="1" stop-color="rgb(1.947021%, 26.983643%, 48.190308%)" offset="0"/><stop stop-opacity="1" stop-color="rgb(1.94397%, 27.114868%, 48.345947%)" offset="0.0078125"/><stop stop-opacity="1" stop-color="rgb(1.937866%, 27.378845%, 48.658752%)" offset="0.015625"/><stop stop-opacity="1" stop-color="rgb(1.931763%, 27.644348%, 48.970032%)" offset="0.0234375"/><stop stop-opacity="1" stop-color="rgb(1.927185%, 27.908325%, 49.281311%)" offset="0.03125"/><stop stop-opacity="1" stop-color="rgb(1.921082%, 28.172302%, 49.59259%)" offset="0.0390625"/><stop stop-opacity="1" stop-color="rgb(1.914978%, 28.437805%, 49.905396%)" offset="0.046875"/><stop stop-opacity="1" stop-color="rgb(1.908875%, 28.701782%, 50.216675%)" offset="0.0546875"/><stop stop-opacity="1" stop-color="rgb(1.902771%, 28.967285%, 50.527954%)" offset="0.0625"/><stop stop-opacity="1" stop-color="rgb(1.896667%, 29.231262%, 50.840759%)" offset="0.0703125"/><stop stop-opacity="1" stop-color="rgb(1.890564%, 29.495239%, 51.152039%)" offset="0.078125"/><stop stop-opacity="1" stop-color="rgb(1.88446%, 29.760742%, 51.463318%)" offset="0.0859375"/><stop stop-opacity="1" stop-color="rgb(1.878357%, 30.024719%, 51.776123%)" offset="0.09375"/><stop stop-opacity="1" stop-color="rgb(1.872253%, 30.288696%, 52.087402%)" offset="0.101563"/><stop stop-opacity="1" stop-color="rgb(1.86615%, 30.554199%, 52.398682%)" offset="0.109375"/><stop stop-opacity="1" stop-color="rgb(1.860046%, 30.818176%, 52.709961%)" offset="0.117188"/><stop stop-opacity="1" stop-color="rgb(1.853943%, 31.082153%, 53.022766%)" offset="0.125"/><stop stop-opacity="1" stop-color="rgb(1.847839%, 31.347656%, 53.334045%)" offset="0.132813"/><stop stop-opacity="1" stop-color="rgb(1.843262%, 31.611633%, 53.645325%)" offset="0.140625"/><stop stop-opacity="1" stop-color="rgb(1.837158%, 31.87561%, 53.95813%)" offset="0.148438"/><stop stop-opacity="1" stop-color="rgb(1.831055%, 32.141113%, 54.269409%)" offset="0.15625"/><stop stop-opacity="1" stop-color="rgb(1.824951%, 32.40509%, 54.580688%)" offset="0.164063"/><stop stop-opacity="1" stop-color="rgb(1.818848%, 32.670593%, 54.891968%)" offset="0.171875"/><stop stop-opacity="1" stop-color="rgb(1.812744%, 32.93457%, 55.204773%)" offset="0.179688"/><stop stop-opacity="1" stop-color="rgb(1.806641%, 33.198547%, 55.516052%)" offset="0.1875"/><stop stop-opacity="1" stop-color="rgb(1.800537%, 33.46405%, 55.827332%)" offset="0.191062"/><stop stop-opacity="1" stop-color="rgb(1.797485%, 33.596802%, 55.984497%)" offset="0.195313"/><stop stop-opacity="1" stop-color="rgb(1.794434%, 33.728027%, 56.140137%)" offset="0.203125"/><stop stop-opacity="1" stop-color="rgb(1.78833%, 33.992004%, 56.451416%)" offset="0.210938"/><stop stop-opacity="1" stop-color="rgb(1.782227%, 34.257507%, 56.762695%)" offset="0.21875"/><stop stop-opacity="1" stop-color="rgb(1.776123%, 34.521484%, 57.0755%)" offset="0.226563"/><stop stop-opacity="1" stop-color="rgb(1.77002%, 34.785461%, 57.38678%)" offset="0.234375"/><stop stop-opacity="1" stop-color="rgb(1.763916%, 35.050964%, 57.698059%)" offset="0.242188"/><stop stop-opacity="1" stop-color="rgb(1.759338%, 35.314941%, 58.009338%)" offset="0.25"/><stop stop-opacity="1" stop-color="rgb(1.753235%, 35.578918%, 58.322144%)" offset="0.257813"/><stop stop-opacity="1" stop-color="rgb(1.747131%, 35.844421%, 58.633423%)" offset="0.265625"/><stop stop-opacity="1" stop-color="rgb(1.741028%, 36.108398%, 58.944702%)" offset="0.273438"/><stop stop-opacity="1" stop-color="rgb(1.734924%, 36.372375%, 59.257507%)" offset="0.28125"/><stop stop-opacity="1" stop-color="rgb(1.728821%, 36.637878%, 59.568787%)" offset="0.289063"/><stop stop-opacity="1" stop-color="rgb(1.722717%, 36.901855%, 59.880066%)" offset="0.296875"/><stop stop-opacity="1" stop-color="rgb(1.716614%, 37.167358%, 60.191345%)" offset="0.304688"/><stop stop-opacity="1" stop-color="rgb(1.71051%, 37.431335%, 60.50415%)" offset="0.3125"/><stop stop-opacity="1" stop-color="rgb(1.704407%, 37.695312%, 60.81543%)" offset="0.320313"/><stop stop-opacity="1" stop-color="rgb(1.698303%, 37.960815%, 61.126709%)" offset="0.328125"/><stop stop-opacity="1" stop-color="rgb(1.6922%, 38.224792%, 61.439514%)" offset="0.335938"/><stop stop-opacity="1" stop-color="rgb(1.686096%, 38.48877%, 61.750793%)" offset="0.34375"/><stop stop-opacity="1" stop-color="rgb(1.679993%, 38.754272%, 62.062073%)" offset="0.351563"/><stop stop-opacity="1" stop-color="rgb(1.675415%, 39.01825%, 62.374878%)" offset="0.359375"/><stop stop-opacity="1" stop-color="rgb(1.669312%, 39.282227%, 62.686157%)" offset="0.367188"/><stop stop-opacity="1" stop-color="rgb(1.663208%, 39.547729%, 62.997437%)" offset="0.375"/><stop stop-opacity="1" stop-color="rgb(1.657104%, 39.811707%, 63.308716%)" offset="0.382813"/><stop stop-opacity="1" stop-color="rgb(1.651001%, 40.075684%, 63.621521%)" offset="0.390625"/><stop stop-opacity="1" stop-color="rgb(1.644897%, 40.341187%, 63.9328%)" offset="0.398438"/><stop stop-opacity="1" stop-color="rgb(1.638794%, 40.605164%, 64.24408%)" offset="0.40625"/><stop stop-opacity="1" stop-color="rgb(1.63269%, 40.870667%, 64.556885%)" offset="0.414063"/><stop stop-opacity="1" stop-color="rgb(1.626587%, 41.134644%, 64.868164%)" offset="0.421875"/><stop stop-opacity="1" stop-color="rgb(1.620483%, 41.398621%, 65.179443%)" offset="0.429688"/><stop stop-opacity="1" stop-color="rgb(1.61438%, 41.664124%, 65.490723%)" offset="0.4375"/><stop stop-opacity="1" stop-color="rgb(1.608276%, 41.928101%, 65.803528%)" offset="0.445312"/><stop stop-opacity="1" stop-color="rgb(1.602173%, 42.192078%, 66.114807%)" offset="0.453125"/><stop stop-opacity="1" stop-color="rgb(1.596069%, 42.457581%, 66.426086%)" offset="0.460938"/><stop stop-opacity="1" stop-color="rgb(1.591492%, 42.721558%, 66.738892%)" offset="0.46875"/><stop stop-opacity="1" stop-color="rgb(1.585388%, 42.985535%, 67.050171%)" offset="0.476562"/><stop stop-opacity="1" stop-color="rgb(1.579285%, 43.251038%, 67.36145%)" offset="0.484375"/><stop stop-opacity="1" stop-color="rgb(1.573181%, 43.515015%, 67.674255%)" offset="0.492188"/><stop stop-opacity="1" stop-color="rgb(1.567078%, 43.778992%, 67.985535%)" offset="0.5"/><stop stop-opacity="1" stop-color="rgb(1.560974%, 44.044495%, 68.296814%)" offset="0.507812"/><stop stop-opacity="1" stop-color="rgb(1.554871%, 44.308472%, 68.608093%)" offset="0.515625"/><stop stop-opacity="1" stop-color="rgb(1.548767%, 44.572449%, 68.920898%)" offset="0.523438"/><stop stop-opacity="1" stop-color="rgb(1.542664%, 44.837952%, 69.232178%)" offset="0.53125"/><stop stop-opacity="1" stop-color="rgb(1.53656%, 45.101929%, 69.543457%)" offset="0.539062"/><stop stop-opacity="1" stop-color="rgb(1.530457%, 45.367432%, 69.856262%)" offset="0.546875"/><stop stop-opacity="1" stop-color="rgb(1.524353%, 45.631409%, 70.167542%)" offset="0.554688"/><stop stop-opacity="1" stop-color="rgb(1.51825%, 45.895386%, 70.478821%)" offset="0.5625"/><stop stop-opacity="1" stop-color="rgb(1.512146%, 46.160889%, 70.7901%)" offset="0.570313"/><stop stop-opacity="1" stop-color="rgb(1.507568%, 46.424866%, 71.102905%)" offset="0.578125"/><stop stop-opacity="1" stop-color="rgb(1.501465%, 46.688843%, 71.414185%)" offset="0.585938"/><stop stop-opacity="1" stop-color="rgb(1.495361%, 46.954346%, 71.725464%)" offset="0.59375"/><stop stop-opacity="1" stop-color="rgb(1.489258%, 47.218323%, 72.038269%)" offset="0.601562"/><stop stop-opacity="1" stop-color="rgb(1.483154%, 47.4823%, 72.349548%)" offset="0.609375"/><stop stop-opacity="1" stop-color="rgb(1.477051%, 47.747803%, 72.660828%)" offset="0.617188"/><stop stop-opacity="1" stop-color="rgb(1.470947%, 48.01178%, 72.973633%)" offset="0.625"/><stop stop-opacity="1" stop-color="rgb(1.464844%, 48.275757%, 73.284912%)" offset="0.632812"/><stop stop-opacity="1" stop-color="rgb(1.45874%, 48.54126%, 73.596191%)" offset="0.640625"/><stop stop-opacity="1" stop-color="rgb(1.452637%, 48.805237%, 73.907471%)" offset="0.648437"/><stop stop-opacity="1" stop-color="rgb(1.446533%, 49.07074%, 74.220276%)" offset="0.65625"/><stop stop-opacity="1" stop-color="rgb(1.44043%, 49.334717%, 74.531555%)" offset="0.664063"/><stop stop-opacity="1" stop-color="rgb(1.434326%, 49.598694%, 74.842834%)" offset="0.671875"/><stop stop-opacity="1" stop-color="rgb(1.428223%, 49.864197%, 75.15564%)" offset="0.679688"/><stop stop-opacity="1" stop-color="rgb(1.422119%, 50.128174%, 75.466919%)" offset="0.6875"/><stop stop-opacity="1" stop-color="rgb(1.417542%, 50.392151%, 75.778198%)" offset="0.695312"/><stop stop-opacity="1" stop-color="rgb(1.411438%, 50.657654%, 76.089478%)" offset="0.703125"/><stop stop-opacity="1" stop-color="rgb(1.405334%, 50.921631%, 76.402283%)" offset="0.710938"/><stop stop-opacity="1" stop-color="rgb(1.399231%, 51.185608%, 76.713562%)" offset="0.71875"/><stop stop-opacity="1" stop-color="rgb(1.393127%, 51.451111%, 77.024841%)" offset="0.726562"/><stop stop-opacity="1" stop-color="rgb(1.387024%, 51.715088%, 77.337646%)" offset="0.734375"/><stop stop-opacity="1" stop-color="rgb(1.38092%, 51.979065%, 77.648926%)" offset="0.742187"/><stop stop-opacity="1" stop-color="rgb(1.374817%, 52.244568%, 77.960205%)" offset="0.75"/><stop stop-opacity="1" stop-color="rgb(1.368713%, 52.508545%, 78.27301%)" offset="0.757813"/><stop stop-opacity="1" stop-color="rgb(1.36261%, 52.774048%, 78.58429%)" offset="0.765625"/><stop stop-opacity="1" stop-color="rgb(1.356506%, 53.038025%, 78.895569%)" offset="0.773438"/><stop stop-opacity="1" stop-color="rgb(1.350403%, 53.302002%, 79.206848%)" offset="0.78125"/><stop stop-opacity="1" stop-color="rgb(1.344299%, 53.567505%, 79.519653%)" offset="0.789062"/><stop stop-opacity="1" stop-color="rgb(1.338196%, 53.831482%, 79.830933%)" offset="0.796875"/><stop stop-opacity="1" stop-color="rgb(1.333618%, 54.095459%, 80.142212%)" offset="0.804688"/><stop stop-opacity="1" stop-color="rgb(1.327515%, 54.360962%, 80.455017%)" offset="0.808938"/><stop stop-opacity="1" stop-color="rgb(1.324463%, 54.493713%, 80.610657%)" offset="0.8125"/><stop stop-opacity="1" stop-color="rgb(1.321411%, 54.624939%, 80.766296%)" offset="0.820312"/><stop stop-opacity="1" stop-color="rgb(1.315308%, 54.888916%, 81.077576%)" offset="0.828125"/><stop stop-opacity="1" stop-color="rgb(1.309204%, 55.154419%, 81.388855%)" offset="0.835937"/><stop stop-opacity="1" stop-color="rgb(1.303101%, 55.418396%, 81.70166%)" offset="0.84375"/><stop stop-opacity="1" stop-color="rgb(1.296997%, 55.682373%, 82.012939%)" offset="0.851563"/><stop stop-opacity="1" stop-color="rgb(1.290894%, 55.947876%, 82.324219%)" offset="0.859375"/><stop stop-opacity="1" stop-color="rgb(1.28479%, 56.211853%, 82.637024%)" offset="0.867188"/><stop stop-opacity="1" stop-color="rgb(1.278687%, 56.47583%, 82.948303%)" offset="0.875"/><stop stop-opacity="1" stop-color="rgb(1.272583%, 56.741333%, 83.259583%)" offset="0.882812"/><stop stop-opacity="1" stop-color="rgb(1.266479%, 57.00531%, 83.572388%)" offset="0.890625"/><stop stop-opacity="1" stop-color="rgb(1.260376%, 57.270813%, 83.883667%)" offset="0.898438"/><stop stop-opacity="1" stop-color="rgb(1.254272%, 57.53479%, 84.194946%)" offset="0.90625"/><stop stop-opacity="1" stop-color="rgb(1.249695%, 57.798767%, 84.506226%)" offset="0.914062"/><stop stop-opacity="1" stop-color="rgb(1.243591%, 58.06427%, 84.819031%)" offset="0.921875"/><stop stop-opacity="1" stop-color="rgb(1.237488%, 58.328247%, 85.13031%)" offset="0.929687"/><stop stop-opacity="1" stop-color="rgb(1.231384%, 58.592224%, 85.441589%)" offset="0.9375"/><stop stop-opacity="1" stop-color="rgb(1.225281%, 58.857727%, 85.754395%)" offset="0.945312"/><stop stop-opacity="1" stop-color="rgb(1.219177%, 59.121704%, 86.065674%)" offset="0.953125"/><stop stop-opacity="1" stop-color="rgb(1.213074%, 59.385681%, 86.376953%)" offset="0.960938"/><stop stop-opacity="1" stop-color="rgb(1.20697%, 59.651184%, 86.688232%)" offset="0.96875"/><stop stop-opacity="1" stop-color="rgb(1.200867%, 59.890747%, 86.972046%)" offset="1"/></linearGradient><clipPath id="5472132d99"><path d="M 33 148.375 L 83 148.375 L 83 193 L 33 193 Z M 33 148.375 " clip-rule="nonzero"/></clipPath></defs><g fill="#202940" fill-opacity="1"><g transform="translate(123.547369, 216.660848)"><g><path d="M 32.46875 -22.125 C 31.703125 -17.65625 31.28125 -14.296875 31.28125 -10.421875 C 31.28125 -4.03125 35.40625 0 41.375 0 C 49.125 0 55.84375 -7.3125 56.609375 -12.453125 C 56.78125 -13.796875 56.265625 -14.640625 55 -14.640625 C 53.828125 -12.28125 50.296875 -7.3125 46.171875 -7.3125 C 43.3125 -7.3125 41.546875 -9.421875 42.390625 -14.296875 L 49.28125 -53.921875 C 50.375 -60.21875 49.375 -63.078125 42.5625 -63.078125 C 30.53125 -63.078125 25.3125 -58.125 21.453125 -47.359375 L 15.0625 -29.609375 C 14.046875 -29.78125 13.03125 -29.859375 12.03125 -29.859375 C 7.828125 -29.859375 5.296875 -27.671875 5.296875 -24.3125 C 5.296875 -22.03125 6.640625 -20.9375 6.640625 -20.9375 C 6.640625 -20.9375 8.75 -22.453125 12.53125 -22.875 C 8.40625 -12.875 4.453125 -10.015625 0.75 -10.015625 C -1.265625 -10.015625 -2.1875 -10.6875 -2.1875 -10.6875 C -2.1875 -10.6875 -3.359375 -9.421875 -3.359375 -6.46875 C -3.359375 -2.609375 -1.015625 0 2.515625 0 C 7.234375 0 10.59375 -2.609375 15.46875 -16.0625 L 18 -23.046875 L 32.640625 -23.046875 Z M 20.109375 -28.84375 L 26.828125 -47.515625 C 28.84375 -53.234375 32.890625 -58.453125 38.515625 -58.453125 C 38.515625 -58.453125 38.515625 -56.859375 38.09375 -54.328125 L 33.390625 -27.671875 C 27.25 -27.75 23.296875 -28.34375 20.109375 -28.84375 Z M 20.109375 -28.84375 "/></g></g></g><g fill="#202940" fill-opacity="1"><g transform="translate(179.389876, 216.660848)"><g><path d="M -0.5 -42.046875 C -2.359375 -42.046875 -3.359375 -41.046875 -3.359375 -39.609375 C -3.359375 -38.515625 -2.78125 -37.84375 -2.78125 -37.84375 L 2.6875 -37.84375 L -0.421875 -20.109375 C -1.171875 -15.8125 -1.34375 -13.03125 -1.34375 -11.109375 C -1.34375 -4.375 3.53125 0 9.75 0 C 17.75 0 24.5625 -7.3125 25.828125 -12.453125 C 26.15625 -13.875 25.40625 -14.640625 24.3125 -14.640625 C 22.453125 -11.109375 19.015625 -7.3125 14.21875 -7.3125 C 10.265625 -7.3125 8.578125 -10.09375 9.421875 -14.71875 L 13.453125 -37.84375 L 20.265625 -37.84375 C 22.125 -37.84375 23.125 -38.859375 23.125 -40.28125 C 23.125 -41.375 22.546875 -42.046875 22.546875 -42.046875 L 14.21875 -42.046875 L 14.96875 -46.265625 C 16.0625 -52.140625 15.21875 -54.59375 8.75 -54.59375 C 5.640625 -54.59375 4.375 -53.828125 4.375 -53.828125 C 4.375 -53.828125 5.296875 -51.890625 4.296875 -46.59375 L 3.453125 -42.046875 Z M -0.5 -42.046875 "/></g></g></g><g fill="#202940" fill-opacity="1"><g transform="translate(204.451722, 216.660848)"><g><path d="M 16.484375 0 C 29.359375 0 37.421875 -8.75 38.1875 -12.453125 C 38.515625 -13.96875 37.9375 -14.640625 36.84375 -14.640625 C 34.5625 -11.109375 29.4375 -6.640625 20.4375 -6.640625 C 13.296875 -6.640625 8.921875 -11.515625 8.40625 -17.828125 C 23.21875 -20.609375 32.046875 -25.65625 32.046875 -33.3125 C 32.046875 -37.59375 28.59375 -42.046875 20.015625 -42.046875 C 8.828125 -42.046875 -2.515625 -33.0625 -2.515625 -18.171875 C -2.515625 -6.8125 5.46875 0 16.484375 0 Z M 20.109375 -37.84375 C 21.875 -37.84375 23.046875 -36.671875 23.046875 -34.90625 C 23.046875 -29.359375 18.75 -24.21875 8.5 -21.78125 C 9.421875 -32.296875 15.3125 -37.84375 20.109375 -37.84375 Z M 20.109375 -37.84375 "/></g></g></g><g fill="#202940" fill-opacity="1"><g transform="translate(242.380888, 216.660848)"><g><path d="M -0.921875 -18.5 C -1.515625 -15.140625 -1.6875 -12.203125 -1.6875 -10.515625 C -1.6875 -3.78125 2.359375 0 8.15625 0 C 16.3125 0 22.875 -7.984375 23.71875 -12.453125 C 23.96875 -13.96875 23.21875 -14.640625 22.125 -14.640625 C 19.9375 -10.09375 16.15625 -7.3125 12.78125 -7.3125 C 9.75 -7.3125 8.328125 -9.75 9.171875 -14.71875 L 17.40625 -61.484375 C 18.421875 -67.375 17.65625 -69.8125 11.1875 -69.8125 C 8.078125 -69.8125 6.8125 -69.046875 6.8125 -69.046875 C 6.8125 -69.046875 7.65625 -67.125 6.734375 -61.828125 Z M -0.921875 -18.5 "/></g></g></g><g fill="#202940" fill-opacity="1"><g transform="translate(265.340233, 216.660848)"><g><path d="M -0.921875 -18.5 C -1.515625 -15.140625 -1.6875 -12.203125 -1.6875 -10.515625 C -1.6875 -3.78125 2.359375 0 8.15625 0 C 16.3125 0 22.375 -7.984375 23.21875 -12.453125 C 23.46875 -13.96875 22.703125 -14.640625 21.609375 -14.640625 C 19.421875 -10.09375 15.640625 -7.3125 12.78125 -7.3125 C 9.75 -7.3125 8.328125 -9.671875 9.171875 -14.71875 L 12.453125 -33.734375 C 13.453125 -39.609375 12.703125 -42.046875 6.21875 -42.046875 C 3.109375 -42.046875 1.84375 -41.296875 1.84375 -41.296875 C 1.84375 -41.296875 2.6875 -39.453125 1.765625 -34.0625 Z M 4.703125 -54.671875 C 4.703125 -51.734375 6.734375 -49.625 9.75 -49.625 C 13.453125 -49.625 15.8125 -52.484375 15.8125 -55.421875 C 15.8125 -58.453125 13.796875 -60.734375 10.59375 -60.734375 C 7.40625 -60.734375 4.703125 -58.125 4.703125 -54.671875 Z M 4.703125 -54.671875 "/></g></g></g><g fill="#202940" fill-opacity="1"><g transform="translate(287.79498, 216.660848)"><g><path d="M 16.484375 0 C 29.359375 0 37.421875 -8.75 38.1875 -12.453125 C 38.515625 -13.96875 37.9375 -14.640625 36.84375 -14.640625 C 34.5625 -11.109375 29.4375 -6.640625 20.4375 -6.640625 C 13.296875 -6.640625 8.921875 -11.515625 8.40625 -17.828125 C 23.21875 -20.609375 32.046875 -25.65625 32.046875 -33.3125 C 32.046875 -37.59375 28.59375 -42.046875 20.015625 -42.046875 C 8.828125 -42.046875 -2.515625 -33.0625 -2.515625 -18.171875 C -2.515625 -6.8125 5.46875 0 16.484375 0 Z M 20.109375 -37.84375 C 21.875 -37.84375 23.046875 -36.671875 23.046875 -34.90625 C 23.046875 -29.359375 18.75 -24.21875 8.5 -21.78125 C 9.421875 -32.296875 15.3125 -37.84375 20.109375 -37.84375 Z M 20.109375 -37.84375 "/></g></g></g><g fill="#202940" fill-opacity="1"><g transform="translate(325.724146, 216.660848)"><g><path d="M 13.03125 -33.734375 C 14.046875 -39.359375 13.296875 -42.046875 6.8125 -42.046875 C 3.703125 -42.046875 2.4375 -41.296875 2.4375 -41.296875 C 2.4375 -41.296875 3.28125 -39.359375 2.359375 -34.0625 L -2.109375 -8.328125 C -3.109375 -2.4375 -2.359375 0 4.125 0 C 7.234375 0 8.5 -0.75 8.5 -0.75 C 8.5 -0.75 7.65625 -2.515625 8.5 -7.484375 C 10.515625 -19.34375 13.296875 -24.5625 16.484375 -29.015625 C 19.265625 -32.890625 21.109375 -33.984375 22.453125 -33.984375 C 23.71875 -33.984375 24.21875 -33.3125 24.21875 -32.125 C 24.21875 -29.859375 23.125 -27.921875 23.125 -27.921875 C 23.125 -27.921875 24.734375 -27.421875 26.921875 -27.421875 C 31.03125 -27.421875 33.890625 -30.78125 33.890625 -35.5 C 33.890625 -39.78125 31.28125 -42.046875 27.171875 -42.046875 C 23.375 -42.046875 17.75 -39.109375 12.359375 -30.03125 Z M 13.03125 -33.734375 "/></g></g></g><g clip-path="url(#d0cc674619)"><path fill="#0399df" d="M 55.113281 190.175781 C 59.414062 187.4375 62.332031 182.980469 63.109375 177.941406 C 70.933594 180.441406 77.652344 185.414062 82.324219 192.015625 L 85.753906 197.957031 L 88.273438 202.316406 L 102.164062 226.367188 C 69.976562 223.375 67.5625 197.265625 47.515625 192.835938 C 50.191406 192.546875 52.792969 191.648438 55.113281 190.175781 Z M 55.113281 190.175781 " fill-opacity="1" fill-rule="evenodd"/></g><g clip-path="url(#44ea329cef)"><g clip-path="url(#6f932df809)"><path fill="url(#94cf54061e)" d="M 7.664062 191.472656 L 7.664062 226.375 L 68.472656 226.375 L 68.472656 191.472656 Z M 7.664062 191.472656 " fill-rule="nonzero"/></g></g><g clip-path="url(#5472132d99)"><path fill="#02aeec" d="M 51.957031 148.382812 C 58.230469 149.4375 60.671875 154.539062 63.679688 159.742188 L 82.324219 192.015625 C 77.652344 185.414062 70.933594 180.441406 63.109375 177.941406 C 53.085938 174.742188 42.179688 175.890625 33.046875 181.117188 Z M 51.957031 148.382812 " fill-opacity="1" fill-rule="evenodd"/></g></svg>