<svg xmlns="http://www.w3.org/2000/svg" xmlns:xlink="http://www.w3.org/1999/xlink" width="500" zoomAndPan="magnify" viewBox="0 0 375 374.999991" height="500" preserveAspectRatio="xMidYMid meet" version="1.0"><defs><clipPath id="c8a41052f5"><path d="M 66.742188 64 L 175 64 L 175 266 L 66.742188 266 Z M 66.742188 64 " clip-rule="nonzero"/></clipPath><clipPath id="a5498dc44c"><path d="M 200 109 L 308.242188 109 L 308.242188 311 L 200 311 Z M 200 109 " clip-rule="nonzero"/></clipPath><clipPath id="b476d2fd09"><path d="M 74 226 L 175 226 L 175 373.359375 L 74 373.359375 Z M 74 226 " clip-rule="nonzero"/></clipPath><clipPath id="f46ce9966a"><path d="M 200 1.359375 L 301 1.359375 L 301 149 L 200 149 Z M 200 1.359375 " clip-rule="nonzero"/></clipPath></defs><g clip-path="url(#c8a41052f5)"><path fill="#16d841" d="M 66.796875 265.441406 L 174.992188 157.246094 L 174.992188 64.660156 L 66.796875 172.855469 Z M 66.796875 265.441406 " fill-opacity="1" fill-rule="nonzero"/></g><g clip-path="url(#a5498dc44c)"><path fill="#16d841" d="M 261.917969 155.84375 L 200.015625 217.746094 L 200.015625 310.332031 L 308.210938 202.136719 L 308.210938 109.550781 Z M 261.917969 155.84375 " fill-opacity="1" fill-rule="nonzero"/></g><g clip-path="url(#b476d2fd09)"><path fill="#069425" d="M 74.160156 272.808594 L 174.992188 373.632812 L 174.992188 281.058594 L 120.453125 226.519531 Z M 74.160156 272.808594 " fill-opacity="1" fill-rule="nonzero"/></g><g clip-path="url(#f46ce9966a)"><path fill="#069425" d="M 200.015625 1.359375 L 200.015625 93.933594 L 254.550781 148.480469 L 300.847656 102.183594 Z M 200.015625 1.359375 " fill-opacity="1" fill-rule="nonzero"/></g></svg>