<svg xmlns="http://www.w3.org/2000/svg" xmlns:xlink="http://www.w3.org/1999/xlink" width="500" zoomAndPan="magnify" viewBox="0 0 375 374.999991" height="500" preserveAspectRatio="xMidYMid meet" version="1.0"><defs><clipPath id="84e29b6c6f"><path d="M 260.445312 53 L 375 53 L 375 321.980469 L 260.445312 321.980469 Z M 260.445312 53 " clip-rule="nonzero"/></clipPath><clipPath id="c150b8a8ae"><path d="M 0 52.730469 L 260.25 52.730469 L 260.25 321.980469 L 0 321.980469 Z M 0 52.730469 " clip-rule="nonzero"/></clipPath></defs><path fill="#ffe400" d="M 263.585938 318.175781 L 263.585938 56.488281 L 372.167969 56.488281 L 372.167969 318.175781 Z M 363.113281 309.148438 L 363.113281 209.890625 L 354.066406 209.890625 L 354.066406 300.125 L 281.675781 300.125 L 281.675781 309.148438 Z M 363.113281 309.148438 " fill-opacity="1" fill-rule="nonzero"/><g clip-path="url(#84e29b6c6f)"><path stroke-linecap="butt" transform="matrix(1.482558, 0, 0, 1.47844, -7969.828512, -72.523082)" fill="none" stroke-linejoin="round" d="M 5553.519024 264.264301 L 5553.519024 87.26183 L 5626.758672 87.26183 L 5626.758672 264.264301 Z M 5620.651196 258.158307 L 5620.651196 191.021443 L 5614.54899 191.021443 L 5614.54899 252.054956 L 5565.720802 252.054956 L 5565.720802 258.158307 Z M 5620.651196 258.158307 " stroke="#000000" stroke-width="4.17" stroke-opacity="1" stroke-miterlimit="2"/></g><path fill="#ffe400" d="M 130.058594 191.792969 C 125.105469 191.792969 120.84375 193.574219 117.28125 197.136719 C 113.71875 200.699219 111.933594 204.957031 111.933594 209.910156 C 111.933594 214.859375 113.71875 219.117188 117.28125 222.679688 C 120.84375 226.242188 125.105469 228.023438 130.058594 228.023438 C 135.011719 228.023438 139.269531 226.242188 142.832031 222.679688 C 146.398438 219.117188 148.179688 214.859375 148.179688 209.910156 C 148.179688 204.957031 146.398438 200.699219 142.832031 197.136719 C 139.269531 193.574219 135.011719 191.792969 130.058594 191.792969 Z M 188.957031 223.496094 L 225.199219 300.492188 L 148.179688 300.492188 L 148.179688 309.550781 L 238.792969 309.550781 L 198.015625 223.496094 Z M 256.914062 318.609375 L 3.199219 318.609375 L 130.058594 55.917969 Z M 256.914062 318.609375 " fill-opacity="1" fill-rule="nonzero"/><g clip-path="url(#c150b8a8ae)"><path stroke-linecap="butt" transform="matrix(1.484598, 0, 0, 1.484117, -383.372138, -85.667037)" fill="none" stroke-linejoin="round" d="M 345.838305 186.95292 C 342.501964 186.95292 339.631341 188.153129 337.231701 190.553546 C 334.832061 192.953963 333.62961 195.822883 333.62961 199.160305 C 333.62961 202.495096 334.832061 205.364015 337.231701 207.764432 C 339.631341 210.16485 342.501964 211.365058 345.838305 211.365058 C 349.174647 211.365058 352.042638 210.16485 354.442278 207.764432 C 356.844549 205.364015 358.044369 202.495096 358.044369 199.160305 C 358.044369 195.822883 356.844549 192.953963 354.442278 190.553546 C 352.042638 188.153129 349.174647 186.95292 345.838305 186.95292 Z M 385.511302 208.314528 L 409.92343 260.194598 L 358.044369 260.194598 L 358.044369 266.298291 L 419.079951 266.298291 L 391.613019 208.314528 Z M 431.286015 272.401983 L 260.387964 272.401983 L 345.838305 95.400165 Z M 431.286015 272.401983 " stroke="#000000" stroke-width="4.17" stroke-opacity="1" stroke-miterlimit="2"/></g></svg>